PERFORMER "Sander van Doorn"
TITLE "Essential Mix (2009-06-20) [QRIP]"
FILE "Essential_Mix_-_2009-06-20_-_Sander_Van_Doorn--www.qrip.org.mp3" MP3
  TRACK 01 AUDIO
    PERFORMER "Essential Mix"
    TITLE "Intro"
    INDEX 01 00:00:00
  TRACK 02 AUDIO
    PERFORMER "BoomCardona & Smokers Area"
    TITLE "The Game [Milton Channels Remix - Intro Edit]"
    INDEX 01 01:56:60
  TRACK 03 AUDIO
    PERFORMER "Paul Harris, Dave Spoon, Sam Obernik"
    TITLE "Baditude (Mark Mendes Remix)"
    INDEX 01 02:57:25
  TRACK 04 AUDIO
    PERFORMER "Olav Basoski & DJ Erick E"
    TITLE "Don't Turn Your Back (Sander van Doorn Remix)"
    INDEX 01 07:16:00
  TRACK 05 AUDIO
    PERFORMER "Jesse Garcia"
    TITLE "Let Me Hear You Go"
    INDEX 01 11:01:05
  TRACK 06 AUDIO
    PERFORMER "East & Young"
    TITLE "Reveal Prema"
    INDEX 01 14:23:00
  TRACK 07 AUDIO
    PERFORMER "Patrick Hagenaar feat Jon Junior"
    TITLE "We Feel The Same [H-Unit Dub vs Michael Woods Club Mix][SVD Edit]"
    INDEX 01 18:46:50
  TRACK 08 AUDIO
    PERFORMER "Riktam & Bansi"
    TITLE "Bass Master Zorro (Jerome Isma-Ae Remix)"
    INDEX 01 20:45:70
  TRACK 09 AUDIO
    PERFORMER "B-Cult"
    TITLE "Uni Tunes"
	INDEX 01 23:43:70
  TRACK 10 AUDIO
    PERFORMER "Doves"
    TITLE "Jetstream [Sasha Remix][SVD Edit]"
    INDEX 01 26:27:30
  TRACK 11 AUDIO
    PERFORMER "Dakota"
    TITLE "Chinook"
    INDEX 01 30:13:40
  TRACK 12 AUDIO
    PERFORMER "Alex O'Rion"
    TITLE "Like A Box Of Fluffy Ducks"
    INDEX 01 36:24:00
  TRACK 13 AUDIO
    PERFORMER "Sander van Doorn pres. Purple Haze"
    TITLE "Bliksem"
    INDEX 01 40:33:35
  TRACK 14 AUDIO
    PERFORMER "Patrick Plaice"
    TITLE "Falling Out"
    INDEX 01 45:00:50
  TRACK 15 AUDIO
    PERFORMER "Randy Katana"
    TITLE "You & I"
    INDEX 01 48:57:00
  TRACK 16 AUDIO
    PERFORMER "The Prodigy"
    TITLE "Omen [Simmons & Machiavelli Remix]"
    INDEX 01 52:52:10
  TRACK 17 AUDIO
    PERFORMER "Smart Apes ft. Kate Miles"
    TITLE "Smile [Original Mix]"
    INDEX 01 57:00:00
  TRACK 18 AUDIO
    PERFORMER "The Killers"
    TITLE "Spaceman (Sander van Doorn Remix Part 2)"
    INDEX 01 61:46:00
  TRACK 19 AUDIO
    PERFORMER "Radion 6"
    TITLE "Starlight"
    INDEX 01 66:45:25
  TRACK 20 AUDIO
    PERFORMER "Marco V"
    TITLE "Digital Identity"
    INDEX 01 69:15:00
  TRACK 21 AUDIO
    PERFORMER "Robert Gitelman"
    TITLE "Rockless [Eddie Sender Remix]"
    INDEX 01 75:46:00
  TRACK 22 AUDIO
    PERFORMER "Pascal Feliz"
    TITLE "Smack My 2 Core Up"
    INDEX 01 80:01:00
  TRACK 23 AUDIO
    PERFORMER "Marcel Woods"
    TITLE "Inside Me"
    INDEX 01 84:17:00
  TRACK 24 AUDIO
    PERFORMER "Oryon" 
    TITLE "Rocket Science [Original Mix]"
    INDEX 01 89:44:25
  TRACK 25 AUDIO
    PERFORMER "Robbert Burian"
    TITLE "Poker"
    INDEX 01 93:05:70
  TRACK 26 AUDIO
    PERFORMER "David Forbes & William Daniel"
    TITLE "Illuminatus"
    INDEX 01 98:01:50
  TRACK 27 AUDIO
    PERFORMER "Mallorca Lee"
    TITLE "Krunch"
    INDEX 01 102:46:00
  TRACK 28 AUDIO
    PERFORMER "Ronald van Gelderen"
    TITLE "Backstabberz (Ummet Ozcan Remix)"
    INDEX 01 105:07:00
  TRACK 29 AUDIO
    PERFORMER "ID"
    TITLE "Bastillon"
    INDEX 01 109:24:00
  TRACK 30 AUDIO
    PERFORMER "Depeche Mode"
    TITLE "Peace (Sander van Doorn Remix)"
    INDEX 01 114:13:30
